<svg width="1200" height="476" viewBox="0 0 1200 476" fill="none" xmlns="http://www.w3.org/2000/svg">
<g clip-path="url(#clip0_772_30)">
<rect width="1200" height="476" fill="white"/>
<circle cx="1196" cy="228" r="25.5" fill="white" stroke="black" stroke-width="3"/>
<circle cx="574" cy="80" r="11.5" fill="white" stroke="black" stroke-width="3"/>
<rect x="1160.09" y="58.1657" width="44" height="44" transform="rotate(-34.7475 1160.09 58.1657)" fill="white" stroke="black" stroke-width="3"/>
<rect x="-13.9126" y="162.762" width="32.7649" height="32.7649" transform="rotate(-34.7475 -13.9126 162.762)" fill="white" stroke="black" stroke-width="3"/>
<path d="M1168.5 230.5C1169.33 230.5 1170 229.828 1170 229C1170 228.172 1169.33 227.5 1168.5 227.5V230.5ZM1149.5 229V227.5H1148V229H1149.5ZM1149.5 392V393.5H1151V392H1149.5ZM1075.94 390.939C1075.35 391.525 1075.35 392.475 1075.94 393.061L1085.49 402.607C1086.07 403.192 1087.02 403.192 1087.61 402.607C1088.19 402.021 1088.19 401.071 1087.61 400.485L1079.12 392L1087.61 383.515C1088.19 382.929 1088.19 381.979 1087.61 381.393C1087.02 380.808 1086.07 380.808 1085.49 381.393L1075.94 390.939ZM1085.38 393.5C1086.2 393.5 1086.88 392.828 1086.88 392C1086.88 391.172 1086.2 390.5 1085.38 390.5V393.5ZM1102.12 390.5C1101.3 390.5 1100.62 391.172 1100.62 392C1100.62 392.828 1101.3 393.5 1102.12 393.5V390.5ZM1120.25 393.5C1121.08 393.5 1121.75 392.828 1121.75 392C1121.75 391.172 1121.08 390.5 1120.25 390.5V393.5ZM1139.75 390.5C1138.92 390.5 1138.25 391.172 1138.25 392C1138.25 392.828 1138.92 393.5 1139.75 393.5V390.5ZM1151 378.417C1151 377.588 1150.33 376.917 1149.5 376.917C1148.67 376.917 1148 377.588 1148 378.417H1151ZM1148 351.25C1148 352.078 1148.67 352.75 1149.5 352.75C1150.33 352.75 1151 352.078 1151 351.25H1148ZM1151 324.083C1151 323.255 1150.33 322.583 1149.5 322.583C1148.67 322.583 1148 323.255 1148 324.083H1151ZM1148 296.917C1148 297.745 1148.67 298.417 1149.5 298.417C1150.33 298.417 1151 297.745 1151 296.917H1148ZM1151 269.75C1151 268.922 1150.33 268.25 1149.5 268.25C1148.67 268.25 1148 268.922 1148 269.75H1151ZM1148 242.583C1148 243.412 1148.67 244.083 1149.5 244.083C1150.33 244.083 1151 243.412 1151 242.583H1148ZM1154.25 230.5C1155.08 230.5 1155.75 229.828 1155.75 229C1155.75 228.172 1155.08 227.5 1154.25 227.5V230.5ZM1163.75 227.5C1162.92 227.5 1162.25 228.172 1162.25 229C1162.25 229.828 1162.92 230.5 1163.75 230.5V227.5ZM1077 393.5H1085.38V390.5H1077V393.5ZM1102.12 393.5H1110.5V390.5H1102.12V393.5ZM1110.5 393.5H1120.25V390.5H1110.5V393.5ZM1139.75 393.5H1149.5V390.5H1139.75V393.5ZM1151 392V378.417H1148V392H1151ZM1151 351.25V324.083H1148V351.25H1151ZM1151 296.917V269.75H1148V296.917H1151ZM1151 242.583V229H1148V242.583H1151ZM1149.5 230.5H1154.25V227.5H1149.5V230.5ZM1163.75 230.5H1168.5V227.5H1163.75V230.5Z" fill="black"/>
<path d="M-106 339C-106.828 339 -107.5 338.328 -107.5 337.5C-107.5 336.672 -106.828 336 -106 336V339ZM-71.5 337.5V336H-70V337.5H-71.5ZM-71.5 393V394.5H-73V393H-71.5ZM21 393H22.5V394.5H21V393ZM19.9393 293.939C20.5251 293.354 21.4749 293.354 22.0607 293.939L31.6066 303.485C32.1924 304.071 32.1924 305.021 31.6066 305.607C31.0208 306.192 30.0711 306.192 29.4853 305.607L21 297.121L12.5147 305.607C11.9289 306.192 10.9792 306.192 10.3934 305.607C9.80761 305.021 9.80761 304.071 10.3934 303.485L19.9393 293.939ZM22.5 307.25C22.5 308.078 21.8284 308.75 21 308.75C20.1716 308.75 19.5 308.078 19.5 307.25H22.5ZM19.5 331.75C19.5 330.922 20.1716 330.25 21 330.25C21.8284 330.25 22.5 330.922 22.5 331.75H19.5ZM22.5 356.25C22.5 357.078 21.8284 357.75 21 357.75C20.1716 357.75 19.5 357.078 19.5 356.25H22.5ZM19.5 380.75C19.5 379.922 20.1716 379.25 21 379.25C21.8284 379.25 22.5 379.922 22.5 380.75H19.5ZM9.4375 394.5C8.60907 394.5 7.9375 393.828 7.9375 393C7.9375 392.172 8.60907 391.5 9.4375 391.5V394.5ZM-13.6875 391.5C-12.8591 391.5 -12.1875 392.172 -12.1875 393C-12.1875 393.828 -12.8591 394.5 -13.6875 394.5V391.5ZM-36.8125 394.5C-37.6409 394.5 -38.3125 393.828 -38.3125 393C-38.3125 392.172 -37.6409 391.5 -36.8125 391.5V394.5ZM-59.9375 391.5C-59.1091 391.5 -58.4375 392.172 -58.4375 393C-58.4375 393.828 -59.1091 394.5 -59.9375 394.5V391.5ZM-73 379.125C-73 378.297 -72.3284 377.625 -71.5 377.625C-70.6716 377.625 -70 378.297 -70 379.125H-73ZM-70 351.375C-70 352.203 -70.6716 352.875 -71.5 352.875C-72.3284 352.875 -73 352.203 -73 351.375H-70ZM-80.125 339C-80.9534 339 -81.625 338.328 -81.625 337.5C-81.625 336.672 -80.9534 336 -80.125 336V339ZM-97.375 336C-96.5466 336 -95.875 336.672 -95.875 337.5C-95.875 338.328 -96.5466 339 -97.375 339V336ZM22.5 295V307.25H19.5V295H22.5ZM22.5 331.75V356.25H19.5V331.75H22.5ZM22.5 380.75V393H19.5V380.75H22.5ZM21 394.5H9.4375V391.5H21V394.5ZM-13.6875 394.5H-36.8125V391.5H-13.6875V394.5ZM-59.9375 394.5H-71.5V391.5H-59.9375V394.5ZM-73 393V379.125H-70V393H-73ZM-73 351.375V337.5H-70V351.375H-73ZM-71.5 339H-80.125V336H-71.5V339ZM-97.375 339H-106V336H-97.375V339Z" fill="black"/>
<circle cx="12.5" cy="58.5" r="20" fill="white" stroke="black" stroke-width="3"/>
</g>
<defs>
<clipPath id="clip0_772_30">
<rect width="1200" height="476" fill="white"/>
</clipPath>
</defs>
</svg>
